HIERARCHY
ROOT Hips
{
	OFFSET 0.000000 71.427986 0.000000
	CHANNELS 6 Xposition Yposition Zposition Xrotation Yrotation Zrotation
	JOINT Pelvis
	{
		OFFSET 0.000000 0.000000 0.000000
		CHANNELS 3 Xrotation Yrotation Zrotation
		JOINT LeftUpLeg
		{
			OFFSET 6.797100 -2.508499 -1.318700
			CHANNELS 3 Xrotation Yrotation Zrotation
			JOINT LeftLeg
			{
				OFFSET 0.069008 -29.241863 0.690200
				CHANNELS 3 Xrotation Yrotation Zrotation
				JOINT LeftFoot
				{
					OFFSET -0.069008 -29.568123 -0.266800
					CHANNELS 3 Xrotation Yrotation Zrotation
					JOINT LeftToeBase
					{
						OFFSET 3.145500 -8.631000 16.059900
						CHANNELS 3 Xrotation Yrotation Zrotation
						End Site
						{
							OFFSET 0.000000 18.501587 0.000000
						}
					}
				}
			}
			JOINT Left_ShortSleeve
			{
				OFFSET 0.265923 -10.480953 1.153800
				CHANNELS 3 Xrotation Yrotation Zrotation
				End Site
				{
					OFFSET 1.725763 19.823879 0.000000
				}
			}
		}
		JOINT RightUpLeg
		{
			OFFSET -6.797100 -2.508499 -1.318700
			CHANNELS 3 Xrotation Yrotation Zrotation
			JOINT RightLeg
			{
				OFFSET -0.082453 -29.241932 0.688000
				CHANNELS 3 Xrotation Yrotation Zrotation
				JOINT RightFoot
				{
					OFFSET 0.082453 -29.568058 -0.264600
					CHANNELS 3 Xrotation Yrotation Zrotation
					JOINT RightToeBase
					{
						OFFSET -3.115300 -8.682800 16.113400
						CHANNELS 3 Xrotation Yrotation Zrotation
						End Site
						{
							OFFSET 0.000000 18.567114 0.000000
						}
					}
				}
			}
			JOINT Right_ShortSleeve
			{
				OFFSET -0.265923 -10.480953 1.153800
				CHANNELS 3 Xrotation Yrotation Zrotation
				End Site
				{
					OFFSET -1.725766 19.823910 0.000000
				}
			}
		}
	}
	JOINT Spine
	{
		OFFSET 0.000000 13.368103 0.470500
		CHANNELS 3 Xrotation Yrotation Zrotation
		JOINT Spine1
		{
			OFFSET 0.147000 13.837402 0.538800
			CHANNELS 3 Xrotation Yrotation Zrotation
			JOINT Spine2
			{
				OFFSET 0.168000 16.242897 -1.435500
				CHANNELS 3 Xrotation Yrotation Zrotation
				JOINT Neck
				{
					OFFSET 0.217200 18.631500 -1.679100
					CHANNELS 3 Xrotation Yrotation Zrotation
					JOINT Head
					{
						OFFSET 0.000000 6.599396 1.385900
						CHANNELS 3 Xrotation Yrotation Zrotation
						JOINT Hat
						{
							OFFSET -0.532200 27.220596 -10.096100
							CHANNELS 3 Xrotation Yrotation Zrotation
							End Site
							{
								OFFSET 0.000000 22.029861 0.000000
							}
						}
						JOINT HairD
						{
							OFFSET -10.777400 17.437393 -1.325900
							CHANNELS 3 Xrotation Yrotation Zrotation
							JOINT HairD1
							{
								OFFSET -3.290299 -11.051193 1.062200
								CHANNELS 3 Xrotation Yrotation Zrotation
								End Site
								{
									OFFSET 0.000000 11.579437 0.000000
								}
							}
						}
						JOINT HairB
						{
							OFFSET -10.777400 17.437393 1.467900
							CHANNELS 3 Xrotation Yrotation Zrotation
							JOINT HairB1
							{
								OFFSET -1.561200 -12.956299 3.590200
								CHANNELS 3 Xrotation Yrotation Zrotation
								End Site
								{
									OFFSET 0.000000 13.534866 0.000000
								}
							}
						}
						JOINT HairA
						{
							OFFSET 9.713100 17.437393 1.467900
							CHANNELS 3 Xrotation Yrotation Zrotation
							JOINT HairA1
							{
								OFFSET 1.561200 -12.956299 3.590200
								CHANNELS 3 Xrotation Yrotation Zrotation
								End Site
								{
									OFFSET 0.000000 13.534866 0.000000
								}
							}
						}
						JOINT HairC
						{
							OFFSET 9.713100 17.437393 -1.325900
							CHANNELS 3 Xrotation Yrotation Zrotation
							JOINT HairC1
							{
								OFFSET 3.290300 -11.051193 1.062200
								CHANNELS 3 Xrotation Yrotation Zrotation
								End Site
								{
									OFFSET 0.000000 11.579437 0.000000
								}
							}
						}
					}
				}
				JOINT LeftShoulder
				{
					OFFSET 5.101800 15.108002 -2.763700
					CHANNELS 3 Xrotation Yrotation Zrotation
					JOINT LeftArm
					{
						OFFSET 9.825497 2.506317 -1.597400
						CHANNELS 3 Xrotation Yrotation Zrotation
						JOINT LeftForeArm
						{
							OFFSET 21.966244 0.000000 0.000000
							CHANNELS 3 Xrotation Yrotation Zrotation
							JOINT LeftHand
							{
								OFFSET 33.879036 0.000000 0.000000
								CHANNELS 3 Xrotation Yrotation Zrotation
								JOINT LeftHandThumb1
								{
									OFFSET 6.715286 -2.359680 3.363841
									CHANNELS 3 Xrotation Yrotation Zrotation
									JOINT LeftHandThumb2
									{
										OFFSET 2.507072 -1.447464 1.447461
										CHANNELS 3 Xrotation Yrotation Zrotation
										JOINT LeftHandThumb3
										{
											OFFSET 2.898338 -1.673355 1.673357
											CHANNELS 3 Xrotation Yrotation Zrotation
											End Site
											{
												OFFSET -0.295959 3.727692 -0.131651
											}
										}
									}
								}
								JOINT LeftHandIndex1
								{
									OFFSET 14.190811 -0.254547 3.840278
									CHANNELS 3 Xrotation Yrotation Zrotation
									JOINT LeftHandIndex2
									{
										OFFSET 3.551727 0.000000 -0.000000
										CHANNELS 3 Xrotation Yrotation Zrotation
										JOINT LeftHandIndex3
										{
											OFFSET 2.894196 0.000000 0.000000
											CHANNELS 3 Xrotation Yrotation Zrotation
											End Site
											{
												OFFSET -1.000603 2.690872 0.366626
											}
										}
									}
								}
								JOINT LeftHandMiddle1
								{
									OFFSET 13.776489 0.000000 0.000000
									CHANNELS 3 Xrotation Yrotation Zrotation
									JOINT LeftHandMiddle2
									{
										OFFSET 3.438232 0.000000 0.000000
										CHANNELS 3 Xrotation Yrotation Zrotation
										JOINT LeftHandMiddle3
										{
											OFFSET 3.691551 0.000000 0.000000
											CHANNELS 3 Xrotation Yrotation Zrotation
											End Site
											{
												OFFSET -1.082298 3.499527 0.457670
											}
										}
									}
								}
								JOINT LeftHandRing1
								{
									OFFSET 13.966164 -0.268127 -3.067488
									CHANNELS 3 Xrotation Yrotation Zrotation
									JOINT LeftHandRing2
									{
										OFFSET 3.162567 0.000000 0.000000
										CHANNELS 3 Xrotation Yrotation Zrotation
										JOINT LeftHandRing3
										{
											OFFSET 3.324348 0.000000 0.000000
											CHANNELS 3 Xrotation Yrotation Zrotation
											End Site
											{
												OFFSET -0.861900 3.184998 0.405154
											}
										}
									}
								}
								JOINT LeftHandPinky1
								{
									OFFSET 13.131393 -0.168503 -5.746925
									CHANNELS 3 Xrotation Yrotation Zrotation
									JOINT LeftHandPinky2
									{
										OFFSET 2.849182 0.000000 0.000000
										CHANNELS 3 Xrotation Yrotation Zrotation
										JOINT LeftHandPinky3
										{
											OFFSET 2.805038 0.000000 0.000000
											CHANNELS 3 Xrotation Yrotation Zrotation
											End Site
											{
												OFFSET -0.882500 2.642609 0.325652
											}
										}
									}
								}
							}
							JOINT Left_Sleeve
							{
								OFFSET 6.592125 -0.646545 0.805568
								CHANNELS 3 Xrotation Yrotation Zrotation
								End Site
								{
									OFFSET -0.000179 20.275787 -0.000000
								}
							}
						}
					}
				}
				JOINT RightShoulder
				{
					OFFSET -5.731700 15.108002 -2.763700
					CHANNELS 3 Xrotation Yrotation Zrotation
					JOINT RightArm
					{
						OFFSET -9.825497 2.506317 -1.597400
						CHANNELS 3 Xrotation Yrotation Zrotation
						JOINT RightForeArm
						{
							OFFSET -21.966242 0.000000 0.000000
							CHANNELS 3 Xrotation Yrotation Zrotation
							JOINT RightHand
							{
								OFFSET -33.879032 0.000000 0.000000
								CHANNELS 3 Xrotation Yrotation Zrotation
								JOINT RightHandThumb1
								{
									OFFSET -6.715286 -2.359680 3.363841
									CHANNELS 3 Xrotation Yrotation Zrotation
									JOINT RightHandThumb2
									{
										OFFSET -2.507072 -1.447464 1.447461
										CHANNELS 3 Xrotation Yrotation Zrotation
										JOINT RightHandThumb3
										{
											OFFSET -2.898338 -1.673355 1.673357
											CHANNELS 3 Xrotation Yrotation Zrotation
											End Site
											{
												OFFSET 0.295959 3.727692 -0.131651
											}
										}
									}
								}
								JOINT RightHandIndex1
								{
									OFFSET -14.190811 -0.254547 3.840278
									CHANNELS 3 Xrotation Yrotation Zrotation
									JOINT RightHandIndex2
									{
										OFFSET -3.551727 0.000000 -0.000000
										CHANNELS 3 Xrotation Yrotation Zrotation
										JOINT RightHandIndex3
										{
											OFFSET -2.894196 0.000000 0.000000
											CHANNELS 3 Xrotation Yrotation Zrotation
											End Site
											{
												OFFSET 1.000603 2.690872 0.366626
											}
										}
									}
								}
								JOINT RightHandMiddle1
								{
									OFFSET -13.776489 0.000000 0.000000
									CHANNELS 3 Xrotation Yrotation Zrotation
									JOINT RightHandMiddle2
									{
										OFFSET -3.438232 0.000000 0.000000
										CHANNELS 3 Xrotation Yrotation Zrotation
										JOINT RightHandMiddle3
										{
											OFFSET -3.691551 0.000000 0.000000
											CHANNELS 3 Xrotation Yrotation Zrotation
											End Site
											{
												OFFSET 1.082298 3.499527 0.457670
											}
										}
									}
								}
								JOINT RightHandRing1
								{
									OFFSET -13.966164 -0.268127 -3.067488
									CHANNELS 3 Xrotation Yrotation Zrotation
									JOINT RightHandRing2
									{
										OFFSET -3.162567 0.000000 0.000000
										CHANNELS 3 Xrotation Yrotation Zrotation
										JOINT RightHandRing3
										{
											OFFSET -3.324348 0.000000 0.000000
											CHANNELS 3 Xrotation Yrotation Zrotation
											End Site
											{
												OFFSET 0.861900 3.184998 0.405154
											}
										}
									}
								}
								JOINT RightHandPinky1
								{
									OFFSET -13.131393 -0.168503 -5.746925
									CHANNELS 3 Xrotation Yrotation Zrotation
									JOINT RightHandPinky2
									{
										OFFSET -2.849182 0.000000 0.000000
										CHANNELS 3 Xrotation Yrotation Zrotation
										JOINT RightHandPinky3
										{
											OFFSET -2.805038 0.000000 0.000000
											CHANNELS 3 Xrotation Yrotation Zrotation
											End Site
											{
												OFFSET 0.882500 2.642609 0.325652
											}
										}
									}
								}
							}
							JOINT Right_Sleeve
							{
								OFFSET -6.592125 -0.646545 0.805568
								CHANNELS 3 Xrotation Yrotation Zrotation
								End Site
								{
									OFFSET 0.000179 20.275787 -0.000000
								}
							}
						}
					}
				}
				JOINT Bind_Right_JacketString
				{
					OFFSET -3.534800 11.969597 7.200700
					CHANNELS 3 Xrotation Yrotation Zrotation
					JOINT Bind_Right_JacketString1
					{
						OFFSET -0.319900 -6.102600 2.794100
						CHANNELS 3 Xrotation Yrotation Zrotation
						End Site
						{
							OFFSET 0.000000 6.719452 0.000000
						}
					}
				}
				JOINT Bind_Left_JacketString
				{
					OFFSET 2.904800 11.969597 7.200700
					CHANNELS 3 Xrotation Yrotation Zrotation
					JOINT Bind_Left_JacketString1
					{
						OFFSET 0.364800 -5.904503 3.186800
						CHANNELS 3 Xrotation Yrotation Zrotation
						End Site
						{
							OFFSET 0.000000 6.719513 0.000000
						}
					}
				}
				JOINT HairE
				{
					OFFSET 5.915200 17.612701 -11.592200
					CHANNELS 3 Xrotation Yrotation Zrotation
					JOINT HairE1
					{
						OFFSET 0.289200 -7.171898 -1.284500
						CHANNELS 3 Xrotation Yrotation Zrotation
						End Site
						{
							OFFSET 0.000000 7.291756 0.000000
						}
					}
				}
				JOINT HairF
				{
					OFFSET -0.864800 17.612701 -11.592200
					CHANNELS 3 Xrotation Yrotation Zrotation
					JOINT HairF1
					{
						OFFSET 0.000000 -14.087097 -2.127501
						CHANNELS 3 Xrotation Yrotation Zrotation
						End Site
						{
							OFFSET 0.000000 14.246841 0.000000
						}
					}
				}
				JOINT HairG
				{
					OFFSET -8.087700 17.612701 -11.592200
					CHANNELS 3 Xrotation Yrotation Zrotation
					JOINT HairG1
					{
						OFFSET -0.293600 -6.081398 -0.910100
						CHANNELS 3 Xrotation Yrotation Zrotation
						End Site
						{
							OFFSET 0.000000 6.156120 0.000000
						}
					}
				}
			}
		}
	}
	JOINT Pouch
	{
		OFFSET 0.000000 4.394501 10.847300
		CHANNELS 3 Xrotation Yrotation Zrotation
		End Site
		{
			OFFSET 0.000000 21.880577 0.000000
		}
	}
	JOINT Bag
	{
		OFFSET -13.229000 4.813004 -0.593300
		CHANNELS 3 Xrotation Yrotation Zrotation
		End Site
		{
			OFFSET 0.000000 21.880577 0.000000
		}
	}
	JOINT OccupyGuyFacialAnim_Joint
	{
		OFFSET 1.000000 -70.206398 -1.655000
		CHANNELS 3 Xrotation Yrotation Zrotation
		End Site
		{
			OFFSET 0.000000 21.880577 0.000000
		}
	}
}
MOTION
Frames: 4
Frame Time: 0.016667
-0.201230 60.806252 4.240381 0.927346 -43.412891 5.573311 -0.000000 -0.000001 -0.000000 -33.866957 13.415262 19.037475 61.758967 -10.087519 -0.942180 -29.569316 -10.378595 -7.768573 0.000000 -0.000002 0.000000 -0.000003 0.000001 0.000001 -24.544949 -9.188325 -30.321047 56.372212 -8.972966 -6.488382 -26.800605 -7.211117 24.265652 -0.000000 0.000000 -0.000000 0.000000 -0.000002 0.000001 9.389994 13.045297 -4.799179 1.751731 3.638376 -1.540306 1.716101 3.636636 -1.514276 -4.807232 12.764785 2.112758 4.999612 12.340597 0.595642 0.000000 0.000000 0.000000 0.000000 0.000000 0.000000 0.000000 0.000000 0.000000 0.000000 0.000000 0.000000 0.000000 -0.000000 0.000000 0.000000 0.000000 0.000000 0.000000 -0.000000 0.000000 0.000000 0.000000 0.000000 0.000000 0.000000 0.000000 0.177123 3.280459 -2.501102 0.608044 -3.857612 -44.118852 0.000006 -132.706395 0.000007 -9.689276 -8.659004 15.986229 -6.141203 -11.690801 -6.761691 9.914131 42.595495 3.409862 -0.000000 0.000002 0.000001 0.255320 3.378233 -45.814351 5.654072 5.847736 -88.067455 0.000002 -0.000004 -0.000001 -0.461473 3.841596 -39.722686 6.450741 5.820345 -95.892844 0.000002 0.000001 0.000001 0.469716 4.966805 -39.799444 8.181046 5.368625 -113.502991 -0.000001 0.000003 0.000001 -3.762422 9.063706 -45.253821 5.342521 5.828999 -85.005297 0.000002 0.000000 -0.000002 -0.000001 -0.000001 -0.000002 0.028597 13.490900 -3.638379 -50.086713 20.453896 65.076786 0.000325 105.790929 -0.000321 -20.892259 14.931921 -20.970317 -7.341080 13.749669 7.412325 9.855779 -44.489093 -3.903268 0.000000 0.000002 0.000000 -0.124372 -2.384795 45.108874 4.500581 -4.654520 88.071184 0.000001 -0.000001 0.000002 -0.761625 -2.932904 39.031061 5.133891 -4.632755 95.881642 -0.000002 -0.000002 -0.000001 0.154756 -4.068792 39.122675 6.509727 -4.273606 113.462857 0.000001 -0.000001 0.000003 -4.198884 -8.025525 44.637772 4.252918 -4.639647 85.014832 -0.000002 -0.000000 0.000002 0.000001 0.000004 -0.000000 0.000000 -0.000001 0.000000 0.000000 0.000001 0.000000 0.000000 -0.000001 0.000000 0.000000 -0.000001 0.000000 0.000000 -0.000001 0.000000 0.000000 0.000001 0.000000 0.000000 -0.000001 0.000000 0.000000 -0.000001 0.000000 0.000000 -0.000001 0.000000 0.000000 0.000001 0.000000 -0.000000 -0.000001 -0.000000 -0.000000 -0.000001 -0.000000 -0.000000 -0.000001 -0.000000 
-0.003890 60.875595 4.244037 1.533265 -47.376958 6.132279 -0.000000 -0.000002 -0.000000 -32.958555 14.323563 19.528773 61.460009 -10.055352 -1.675949 -30.100418 -7.729232 -7.459198 0.000000 0.000002 -0.000000 -0.000000 0.000001 0.000000 -26.513715 -7.757309 -29.518807 56.166804 -6.732030 -8.136106 -26.207011 -6.970366 23.626797 0.000000 -0.000001 -0.000000 -0.000001 -0.000003 -0.000001 9.431681 13.344293 -4.875035 1.781056 3.670398 -1.552476 1.745710 3.669435 -1.526469 -4.852182 13.507683 1.989614 5.455245 14.636202 -0.622792 0.000000 0.000000 -0.000000 0.000000 0.000000 -0.000000 0.000000 0.000000 -0.000000 0.000000 0.000000 -0.000000 0.000001 0.000000 -0.000000 0.000000 0.000000 -0.000000 0.000001 0.000000 -0.000000 0.000000 0.000000 -0.000000 0.000000 0.000000 -0.000000 0.097889 3.823968 -2.193746 0.257138 0.811132 -40.840259 0.000013 -133.311905 0.000021 -10.152860 -8.537441 13.607035 -6.141206 -11.690803 -6.761689 9.914125 42.595505 3.409862 -0.000002 -0.000001 -0.000001 0.255321 3.378235 -45.814351 5.654080 5.847739 -88.067455 0.000000 -0.000001 -0.000000 -0.461475 3.841599 -39.722683 6.450744 5.820350 -95.892844 0.000004 0.000000 -0.000003 0.469717 4.966806 -39.799441 8.181045 5.368624 -113.502991 -0.000002 0.000001 -0.000001 -3.762421 9.063706 -45.253825 5.342521 5.828996 -85.005290 -0.000000 -0.000002 0.000002 0.000001 -0.000002 -0.000002 0.200217 11.353356 -3.117908 -51.036953 23.059975 69.349014 0.000229 106.457739 -0.000240 -20.423623 15.369073 -21.891163 -7.341080 13.749663 7.412325 9.855781 -44.489089 -3.903268 -0.000000 0.000003 0.000001 -0.124373 -2.384795 45.108874 4.500579 -4.654521 88.071191 0.000003 -0.000001 -0.000000 -0.761625 -2.932907 39.031061 5.133891 -4.632753 95.881642 0.000001 -0.000001 -0.000003 0.154757 -4.068791 39.122668 6.509726 -4.273609 113.462850 0.000000 -0.000003 -0.000002 -4.198884 -8.025523 44.637776 4.252921 -4.639648 85.014832 0.000000 0.000001 -0.000001 0.000000 0.000002 -0.000001 -0.000001 0.000000 -0.000000 -0.000000 0.000000 -0.000000 -0.000001 0.000000 -0.000000 -0.000001 0.000000 -0.000000 -0.000001 0.000000 -0.000000 -0.000000 0.000000 -0.000000 -0.000001 0.000000 -0.000000 -0.000001 0.000000 -0.000000 -0.000001 0.000000 -0.000000 -0.000000 0.000000 -0.000000 -0.000000 -0.000002 -0.000000 -0.000000 -0.000002 -0.000000 -0.000000 -0.000002 -0.000000 
0.173256 60.928406 4.196335 2.383195 -51.357432 6.704937 -0.000000 -0.000003 0.000000 -32.187646 14.909562 20.044252 61.242830 -10.001014 -2.366962 -30.693880 -4.817136 -7.214249 0.000000 0.000000 -0.000000 0.000001 0.000001 0.000001 -28.663401 -6.734713 -28.246720 56.002951 -4.399373 -10.042203 -25.572635 -6.731288 22.985615 0.000000 -0.000000 -0.000000 0.000003 -0.000002 -0.000002 9.337467 13.317975 -4.899673 1.771371 3.585719 -1.596584 1.740268 3.584198 -1.570211 -4.939231 14.320787 1.963290 5.901589 17.485826 -1.956386 -0.000000 -0.000000 -0.000000 -0.000000 -0.000000 -0.000000 -0.000000 -0.000000 -0.000001 -0.000000 -0.000000 -0.000000 -0.000000 -0.000000 -0.000000 -0.000000 -0.000000 -0.000000 -0.000000 -0.000000 -0.000000 -0.000000 -0.000000 -0.000000 -0.000000 -0.000000 -0.000000 -0.027859 4.558139 -1.523011 -2.682215 4.894937 -37.047110 0.000034 -131.773597 0.000027 -12.029690 -7.006952 9.958189 -6.141196 -11.690805 -6.761690 9.914132 42.595505 3.409855 -0.000000 -0.000001 -0.000002 0.255325 3.378235 -45.814351 5.654074 5.847736 -88.067455 0.000002 -0.000001 -0.000000 -0.461471 3.841599 -39.722690 6.450747 5.820344 -95.892837 0.000000 0.000005 -0.000000 0.469720 4.966808 -39.799444 8.181049 5.368622 -113.502991 -0.000004 -0.000002 0.000003 -3.762419 9.063704 -45.253825 5.342521 5.828998 -85.005290 0.000002 0.000001 0.000001 -0.000000 0.000002 -0.000001 0.408006 9.523259 -2.592241 -52.008667 26.162966 72.996171 0.000228 106.923784 -0.000221 -20.167220 15.760644 -22.777329 -7.341079 13.749665 7.412324 9.855781 -44.489089 -3.903270 0.000000 -0.000001 0.000000 -0.124371 -2.384795 45.108874 4.500575 -4.654522 88.071191 0.000001 -0.000001 0.000000 -0.761624 -2.932911 39.031061 5.133888 -4.632756 95.881642 0.000002 -0.000002 0.000002 0.154757 -4.068795 39.122671 6.509726 -4.273608 113.462857 0.000002 0.000002 0.000002 -4.198884 -8.025522 44.637776 4.252921 -4.639644 85.014839 0.000001 -0.000001 0.000002 -0.000001 -0.000001 0.000004 0.000001 0.000000 -0.000000 0.000001 0.000000 0.000000 0.000001 0.000000 -0.000000 0.000001 0.000000 -0.000000 0.000001 0.000000 -0.000000 0.000001 0.000000 -0.000000 0.000001 0.000000 -0.000000 0.000001 0.000000 -0.000000 0.000001 0.000000 -0.000000 0.000001 0.000000 -0.000000 -0.000000 -0.000003 0.000000 -0.000000 -0.000003 0.000000 -0.000000 -0.000003 0.000000 
0.332919 60.954712 4.090914 3.230306 -54.978778 7.119709 -0.000000 0.000001 -0.000000 -31.538279 15.090891 20.472375 61.198795 -9.961817 -2.842961 -31.310578 -1.812166 -7.054493 0.000000 0.000000 -0.000000 0.000000 0.000000 -0.000001 -30.551142 -5.549851 -27.581578 56.288344 -2.016333 -10.041309 -25.188199 -5.958345 21.646942 -0.000000 0.000000 0.000000 0.000000 -0.000003 0.000002 9.220493 12.920178 -4.841223 1.764130 3.368140 -1.656705 1.742112 3.364807 -1.629984 -5.053196 15.121583 2.024823 6.249757 20.624675 -3.332857 -0.000000 -0.000000 0.000000 -0.000000 -0.000000 0.000000 -0.000000 -0.000000 0.000000 -0.000000 -0.000000 0.000000 -0.000000 -0.000000 0.000000 -0.000000 -0.000000 0.000000 -0.000000 -0.000000 0.000000 -0.000000 -0.000000 0.000000 -0.000000 -0.000000 0.000000 -0.179990 5.325316 -0.579759 -7.789442 6.885921 -33.013152 0.000029 -127.270248 0.000023 -14.645182 -4.440914 5.722876 -6.141202 -11.690802 -6.761693 9.914126 42.595495 3.409866 -0.000004 -0.000001 -0.000003 0.255322 3.378238 -45.814351 5.654076 5.847738 -88.067455 -0.000001 0.000001 -0.000000 -0.461473 3.841600 -39.722690 6.450750 5.820345 -95.892837 0.000001 0.000003 -0.000001 0.469718 4.966807 -39.799437 8.181049 5.368626 -113.502991 -0.000002 0.000000 0.000000 -3.762421 9.063708 -45.253825 5.342514 5.829000 -85.005290 -0.000004 -0.000001 0.000004 0.000001 0.000000 0.000001 0.645878 8.044688 -2.081284 -52.775673 29.458527 75.713876 0.000106 107.580732 -0.000116 -20.173235 16.137932 -23.571464 -7.341081 13.749670 7.412327 9.855782 -44.489096 -3.903270 -0.000001 -0.000004 0.000001 -0.124372 -2.384796 45.108874 4.500578 -4.654526 88.071184 -0.000000 -0.000000 -0.000003 -0.761625 -2.932910 39.031065 5.133892 -4.632756 95.881642 0.000001 -0.000000 -0.000004 0.154757 -4.068798 39.122668 6.509727 -4.273607 113.462857 0.000001 0.000000 0.000003 -4.198884 -8.025529 44.637772 4.252921 -4.639651 85.014832 -0.000001 0.000002 -0.000003 0.000001 0.000002 -0.000000 0.000000 0.000003 -0.000001 0.000000 0.000002 -0.000001 0.000000 0.000003 -0.000001 0.000000 0.000003 -0.000001 0.000000 0.000003 -0.000001 0.000000 0.000002 -0.000001 0.000000 0.000003 -0.000001 0.000000 0.000003 -0.000001 0.000000 0.000003 -0.000001 0.000000 0.000002 -0.000001 -0.000000 0.000001 -0.000000 -0.000000 0.000001 -0.000000 -0.000000 0.000001 -0.000000 
